<svg xmlns="http://www.w3.org/2000/svg" width="32" height="32"><path d="M32 5.337h-5.353c-4.6 0-7.067.263-8.997 2.609a10.61 10.61 0 0 0-6.984-2.606C4.778 5.34.005 10.113.005 16.001s4.773 10.661 10.661 10.661c4.36 0 8.109-2.618 9.761-6.367l.027-.068c4.243-.308 7.187-2.845 8.113-6.897 0 0-3.199.78-5.907 0 5.357-1.036 8.444-4.049 9.34-7.993zM7.48 15.999v-.012a3.188 3.188 0 0 1 4.906-2.686l-.013-.008a3.96 3.96 0 0 1 4.001-3.371h-.004.011c-1.227 2.371-1.876 4.469-2.664 7.017a3.196 3.196 0 0 1-3.048 2.25A3.19 3.19 0 0 1 7.48 16v-.001zm3.181-10.662C4.773 5.337 0 10.11 0 15.998s4.773 10.661 10.661 10.661 10.661-4.773 10.661-10.661S16.549 5.337 10.661 5.337zm0 13.859a3.199 3.199 0 1 1 3.199-3.199v.006a3.195 3.195 0 0 1-3.195 3.195h-.004z"/></svg>